<?xml version="1.0" encoding="UTF-8"?>
<svg width="150" height="80" viewBox="0 0 150 80" xmlns="http://www.w3.org/2000/svg">
  <g fill="none" fill-rule="evenodd">
    <circle fill="#4BC1BB" cx="60" cy="40" r="30"/>
    <path d="M53.13 33.66c0-.83.19-1.5.57-2 .38-.52.9-.78 1.56-.78.45 0 .83.11 1.15.32.32.22.56.52.71.9.15.39.23.82.23 1.3 0 .8-.2 1.45-.61 1.94-.41.5-.94.75-1.58.75-.68 0-1.2-.25-1.57-.75-.38-.5-.56-1.1-.56-1.81l.1.13zm9.88 6.18h-2.36V33.2c0-1-.2-1.74-.6-2.23-.4-.49-.9-.73-1.5-.73-.83 0-1.44.28-1.84.85-.4.57-.6 1.44-.6 2.63v6.12h-2.36V27.9h2.36v2.32h.04c.56-1.76 1.63-2.64 3.21-2.64.63 0 1.22.13 1.75.4.53.25.94.6 1.22 1.02.29.43.48.92.58 1.47.1.56.15 1.4.15 2.53l-.05 6.84z" fill="#333"/>
    <path d="M71.5 45c.83 0 1.5.19 2 .57.52.38.78.9.78 1.56 0 .45-.11.83-.32 1.15-.22.32-.52.56-.9.71-.39.15-.82.23-1.3.23-.8 0-1.45-.2-1.94-.61-.5-.41-.75-.94-.75-1.58 0-.68.25-1.2.75-1.57.5-.38 1.1-.56 1.81-.56l-.13.1zm6.3 11.04v-2.36h6.64c1 0 1.74-.2 2.23-.6.49-.4.73-.9.73-1.5 0-.83-.28-1.44-.85-1.84-.57-.4-1.44-.6-2.63-.6h-6.12v-2.36h7.7l3.87 9.26h-2.65l-1.22-3.08h-3.57L80.21 56H77.8z" fill="#333"/>
  </g>
</svg>
